<svg width="14" height="11" viewBox="0 0 14 11" fill="none" xmlns="http://www.w3.org/2000/svg">
<path d="M4.33093 8.91589L1.41164 5.85425C1.3353 5.77321 1.24438 5.70887 1.14416 5.66496C1.04394 5.62105 0.936397 5.59844 0.827778 5.59844C0.71916 5.59844 0.611621 5.62105 0.511397 5.66496C0.411173 5.70887 0.320257 5.77321 0.243919 5.85425C0.16665 5.93431 0.105302 6.02966 0.0634309 6.13477C0.0215603 6.23988 0 6.35266 0 6.46658C0 6.58049 0.0215603 6.69328 0.0634309 6.79839C0.105302 6.9035 0.16665 6.99885 0.243919 7.07891L3.73873 10.7441C4.06402 11.0853 4.5895 11.0853 4.91479 10.7441L13.7561 1.48047C13.8333 1.40041 13.8947 1.30506 13.9366 1.19995C13.9784 1.09484 14 0.982057 14 0.868142C14 0.754227 13.9784 0.641445 13.9366 0.536334C13.8947 0.431222 13.8333 0.335873 13.7561 0.255813C13.6797 0.174776 13.5888 0.110436 13.4886 0.0665237C13.3884 0.0226114 13.2808 0 13.1722 0C13.0636 0 12.9561 0.0226114 12.8558 0.0665237C12.7556 0.110436 12.6647 0.174776 12.5884 0.255813L4.33093 8.91589Z" fill="#246CF9"/>
</svg>
